<?xml version="1.0" encoding="UTF-8"?>
<svg xmlns="http://www.w3.org/2000/svg" version="1.1" viewBox="0 0 1080 1920">
  <defs>
    <style>
      .cls-1 {
        fill: #231f20;
      }
      .cls-2 {
        fill: #fff200;
      }
      .background {
        fill: #ffffff;
      }
    </style>
  </defs>
  
  <!-- White background -->
  <rect class="background" width="1080" height="1920"/>
  
  <!-- Logo centered on screen -->
  <g transform="translate(540, 960) scale(1.2)">
    <g transform="translate(-172.4, -172.4)">
      <circle class="cls-2" cx="172.4" cy="172.4" r="172.4"/>
      <g>
        <path class="cls-1" d="M172,123.4c14.8,0,27.6,3,38.2,9,10.6,6,18.7,14.6,24.2,25.7,5.5,11.1,8.2,24.1,8.2,39.1s-1.5,21.1-4.5,30.2c-3,9-7.5,16.9-13.5,23.5-6,6.6-13.3,11.7-22.1,15.2-8.7,3.5-18.7,5.3-30,5.3s-21.2-1.8-30.1-5.4c-8.9-3.6-16.2-8.7-22.2-15.3-5.9-6.6-10.4-14.5-13.4-23.7-3-9.2-4.5-19.2-4.5-30s1.6-21.1,4.7-30.3c3.2-9.2,7.7-17,13.7-23.4,6-6.4,13.3-11.4,21.9-14.8s18.4-5.1,29.3-5.1Z"/>
        <circle class="cls-1" cx="229.8" cy="93.8" r="20.4"/>
        <circle class="cls-1" cx="115.1" cy="93.8" r="20.4"/>
      </g>
    </g>
  </g>
</svg>